#!OML:ASF X:\für Bonn\!DataBase\2005_08_12_Daniel\c3d\Daniel.ASF
:FULLY-SPECIFIED
:DEGREES
3061
root -21.9107 17.236 32.4356 -183.982 393.025 -181.931
lowerback 11.8407 0.0626316 -1.96184
upperback 3.42754 0.0632314 -2.46583
thorax -3.04709 0.168895 -1.47612
lowerneck -4.86096 3.04573 -5.29421
upperneck 11.6638 5.58839 -4.40368
head 4.75524 2.46959 -0.234034
rclavicle -4.08502e-014 4.13472e-014
rhumerus -54.9915 -43.3991 -50.213
rradius 9.81286
rwrist 56.7764
rhand -17.3662 15.8955
rfingers 7.12502
rthumb 8.88197 -13.8976
lclavicle -4.08502e-014 4.13472e-014
lhumerus -123.524 51.5363 -33.9482
lradius 13.3127
lwrist -85.5557
lhand -10.9344 -6.29995
lfingers 7.12502
lthumb 15.0837 23.1305
rfemur -8.04578 2.21245 22.2362
rtibia 38.4749
rfoot -27.5435 10.465
rtoes -8.36994
lfemur -6.39347 -3.24199 -26.4073
ltibia 39.5242
lfoot -31.9765 9.86029
ltoes -6.17521
3062
root -21.8994 17.2253 32.4196 -184.175 393.049 -182.032
lowerback 11.9908 -0.00373458 -2.13937
upperback 3.52399 -0.0364925 -2.47309
thorax -3.02877 0.124705 -1.37018
lowerneck -4.80918 3.01676 -5.42893
upperneck 11.6357 5.53642 -4.28143
head 4.72606 2.44486 -0.173446
rclavicle 2.92213e-014 -1.19271e-014
rhumerus -55.1897 -43.6211 -50.1467
rradius 9.67892
rwrist 57.5071
rhand -16.6565 16.1346
rfingers 7.12502
rthumb 9.56675 -13.6282
lclavicle 2.92213e-014 -1.19271e-014
lhumerus -122.893 51.6496 -33.4596
lradius 13.3142
lwrist -85.8688
lhand -11.1553 -6.29264
lfingers 7.12502
lthumb 14.8709 23.1537
rfemur -8.52104 1.54093 21.9553
rtibia 39.4646
rfoot -27.122 11.151
rtoes -7.9335
lfemur -6.19035 -3.22687 -26.5199
ltibia 39.5667
lfoot -32.0303 9.94017
ltoes -6.31295
3063
root -21.8877 17.2113 32.4049 -184.424 393.086 -182.135
lowerback 12.2209 -0.0621801 -2.34196
upperback 3.61179 -0.131534 -2.45871
thorax -3.0622 0.0831411 -1.22858
lowerneck -4.71086 2.99173 -5.55838
upperneck 11.6074 5.49567 -4.20972
head 4.6897 2.42558 -0.131279
rclavicle -1.64991e-014 3.10104e-014
rhumerus -55.3889 -43.7903 -50.0293
rradius 9.57636
rwrist 58.1322
rhand -15.9586 16.3474
rfingers 7.12502
rthumb 10.2401 -13.3834
lclavicle -1.64991e-014 3.10104e-014
lhumerus -122.19 51.749 -32.8532
lradius 13.3491
lwrist -86.1001
lhand -11.4292 -6.46136
lfingers 7.12502
lthumb 14.607 23.0042
rfemur -9.00463 0.929402 21.6795
rtibia 40.5649
rfoot -26.5336 11.8304
rtoes -7.21714
lfemur -5.91935 -3.09832 -26.6164
ltibia 39.5852
lfoot -32.061 9.98252
ltoes -6.39685
3064
root -21.8776 17.1979 32.3884 -184.696 393.083 -182.309
lowerback 12.4299 -0.146193 -2.56806
upperback 3.69952 -0.263195 -2.47575
thorax -3.08306 0.0239297 -1.10059
lowerneck -4.56228 2.98319 -5.68084
upperneck 11.5609 5.46763 -4.1163
head 4.63579 2.41517 -0.0836808
rclavicle 3.46879e-014 -7.15625e-015
rhumerus -55.5134 -43.9795 -49.9974
rradius 9.4791
rwrist 58.634
rhand -15.341 16.5424
rfingers 7.12502
rthumb 10.8358 -13.158
lclavicle 3.46879e-014 -7.15625e-015
lhumerus -121.282 52.0033 -32.0036
lradius 13.3624
lwrist -86.0598
lhand -11.6189 -6.56214
lfingers 7.12502
lthumb 14.4243 22.9166
rfemur -9.56665 0.224845 21.3056
rtibia 41.77
rfoot -25.8062 12.5494
rtoes -6.49145
lfemur -5.64763 -3.0852 -26.8084
ltibia 39.5777
lfoot -32.0633 10.1084
ltoes -6.35513
3065
root -21.8659 17.1815 32.3707 -185.078 393.116 -182.567
lowerback 12.6867 -0.194797 -2.86917
upperback 3.80796 -0.35566 -2.50217
thorax -3.10634 -0.0140444 -0.9457
lowerneck -4.42549 2.96158 -5.80333
upperneck 11.4938 5.42298 -4.04235
head 4.57783 2.39594 -0.0435102
rclavicle 1.05058e-013 -6.36111e-015
rhumerus -55.6685 -44.1812 -49.9007
rradius 9.45725
rwrist 59.1255
rhand -14.7111 16.8567
rfingers 7.12502
rthumb 11.4434 -12.811
lclavicle 1.05058e-013 -6.36111e-015
lhumerus -120.011 52.3884 -30.6865
lradius 13.4188
lwrist -85.8765
lhand -11.7373 -6.60563
lfingers 7.12502
lthumb 14.3101 22.8812
rfemur -10.0968 -0.364393 20.8595
rtibia 43.0303
rfoot -24.9528 13.2843
rtoes -6.14077
lfemur -5.28393 -3.06287 -27.0853
ltibia 39.5667
lfoot -32.131 10.2284
ltoes -6.32042
3066
root -21.8538 17.1633 32.352 -185.488 393.131 -182.864
lowerback 12.9449 -0.245956 -3.18966
upperback 3.90781 -0.455822 -2.54489
thorax -3.13783 -0.0555129 -0.79543
lowerneck -4.24734 2.92699 -5.88968
upperneck 11.444 5.36136 -3.99781
head 4.52031 2.36938 -0.0211094
rclavicle -4.60187e-014 9.54166e-015
rhumerus -55.8912 -44.3673 -49.7686
rradius 9.49549
rwrist 59.5902
rhand -14.1681 17.0769
rfingers 7.12502
rthumb 11.967 -12.561
lclavicle -4.60187e-014 9.54166e-015
lhumerus -119.18 52.6447 -30.0243
lradius 13.3945
lwrist -85.9575
lhand -11.6917 -6.56454
lfingers 7.12502
lthumb 14.3541 22.9192
rfemur -10.6574 -0.931069 20.3731
rtibia 44.3399
rfoot -23.9762 13.9464
rtoes -5.40307
lfemur -4.91961 -3.02014 -27.3949
ltibia 39.5615
lfoot -32.1908 10.3118
ltoes -6.37221
3067
root -21.8418 17.1476 32.3331 -185.762 393.161 -182.962
lowerback 13.1762 -0.316646 -3.34817
upperback 4.01366 -0.562104 -2.54012
thorax -3.14894 -0.102054 -0.685111
lowerneck -4.09054 2.92922 -5.92437
upperneck 11.3926 5.34485 -3.95541
head 4.46756 2.36601 -0.00572595
rclavicle 2.41523e-014 -1.35174e-014
rhumerus -56.1071 -44.5041 -49.6514
rradius 9.59216
rwrist 59.974
rhand -13.8019 17.3553
rfingers 7.12502
rthumb 12.3201 -12.2617
lclavicle 2.41523e-014 -1.35174e-014
lhumerus -117.686 53.1795 -28.4729
lradius 13.4224
lwrist -85.4214
lhand -11.4261 -6.37453
lfingers 7.12502
lthumb 14.61 23.0909
rfemur -11.2509 -1.37697 20.1044
rtibia 45.6477
rfoot -23.0229 14.5035
rtoes -5.30629
lfemur -4.60432 -2.98839 -27.5186
ltibia 39.5714
lfoot -32.2116 10.4136
ltoes -6.24517
3068
root -21.83 17.1343 32.3157 -185.934 393.204 -182.983
lowerback 13.3593 -0.394244 -3.44361
upperback 4.10241 -0.671084 -2.50799
thorax -3.15168 -0.151932 -0.580744
lowerneck -3.89158 2.91989 -6.01592
upperneck 11.2903 5.31 -3.91255
head 4.38673 2.35379 0.0172874
rclavicle -2.95195e-014 -1.98785e-014
rhumerus -56.2456 -44.6669 -49.5853
rradius 9.70495
rwrist 60.332
rhand -13.5333 17.6947
rfingers 7.12502
rthumb 12.5791 -11.9066
lclavicle -2.95195e-014 -1.98785e-014
lhumerus -116.079 53.713 -26.8035
lradius 13.4247
lwrist -84.7922
lhand -11.1351 -6.17708
lfingers 7.12502
lthumb 14.8903 23.2678
rfemur -11.939 -1.75575 19.9209
rtibia 46.9673
rfoot -21.822 14.8707
rtoes -5.17626
lfemur -4.34366 -2.99031 -27.5671
ltibia 39.5858
lfoot -32.2911 10.5439
ltoes -6.25753
3069
root -21.8194 17.1261 32.2964 -186.002 393.217 -182.979
lowerback 13.4757 -0.4778 -3.44656
upperback 4.1559 -0.779153 -2.5068
thorax -3.15688 -0.202814 -0.560629
lowerneck -3.71385 2.89969 -6.06881
upperneck 11.2547 5.261 -3.84015
head 4.33487 2.33499 0.0439797
rclavicle 9.33294e-014 3.18055e-015
rhumerus -56.5483 -44.8196 -49.4235
rradius 9.89867
rwrist 60.6446
rhand -13.3995 17.9533
rfingers 7.12502
rthumb 12.708 -11.64
lclavicle 9.33294e-014 3.18055e-015
lhumerus -114.297 54.2924 -25.0174
lradius 13.4088
lwrist -84.047
lhand -10.7945 -5.94751
lfingers 7.12502
lthumb 15.2185 23.4728
rfemur -12.745 -2.01946 19.7931
rtibia 48.2936
rfoot -20.6632 15.0032
rtoes -5.33929
lfemur -4.17401 -3.01383 -27.5985
ltibia 39.5729
lfoot -32.2872 10.6573
ltoes -6.14798
3070
root -21.8055 17.1235 32.274 -186.013 393.284 -182.924
lowerback 13.5304 -0.54629 -3.45648
upperback 4.19478 -0.868346 -2.45266
thorax -3.14331 -0.246792 -0.48412
lowerneck -3.37036 2.89794 -6.19566
upperneck 11.0944 5.21855 -3.75778
head 4.20285 2.3241 0.0819819
rclavicle -5.80451e-014 9.54166e-015
rhumerus -56.8644 -44.9046 -49.2196
rradius 10.164
rwrist 60.9521
rhand -13.4192 18.2039
rfingers 7.12502
rthumb 12.6891 -11.3906
lclavicle -5.80451e-014 9.54166e-015
lhumerus -111.96 54.9196 -22.5159
lradius 13.3991
lwrist -82.81
lhand -10.4226 -5.80223
lfingers 7.12502
lthumb 15.5766 23.5905
rfemur -13.5922 -2.15997 19.7323
rtibia 49.6286
rfoot -19.5209 15.0261
rtoes -5.81938
lfemur -3.98593 -3.01102 -27.5797
ltibia 39.4959
lfoot -32.3182 10.7872
ltoes -5.95918
